<svg width="1163" height="178" xmlns="http://www.w3.org/2000/svg" xmlns:xlink="http://www.w3.org/1999/xlink" xml:space="preserve" overflow="hidden"><defs><clipPath id="clip0"><rect x="1004" y="736" width="1163" height="178"/></clipPath></defs><g clip-path="url(#clip0)" transform="translate(-1004 -736)"><path d="M1242.54 823.276C1231.2 825.107 1225.41 833.475 1225.41 848.202 1225.41 862.928 1233.13 872.93 1244.97 872.93 1250.47 872.93 1255.48 871.099 1266 865.944L1266 877.934C1253.38 883.722 1245.94 885.512 1235.77 885.512 1224.75 885.512 1217 882.589 1210.67 876.144 1204.19 869.658 1200.94 861.098 1200.94 851.561 1200.94 830.349 1216.66 816 1239.6 816 1254.85 816 1265.33 822.962 1265.33 833.179 1265.33 839.758 1260.45 844.291 1253.21 844.291 1249.5 844.291 1246.44 843.32 1242.54 841.054L1242.54 823.27 1242.54 823.27ZM1186.59 851.567C1196.75 838.758 1200.34 833.597 1200.34 827.309 1200.34 821.021 1195.37 816.006 1188.72 816.006 1184.63 816.006 1180.95 817.935 1179.14 819.946L1179.14 846.034 1162.49 868.211 1162.49 817.645 1146.65 817.645 1120.33 861.26 1120.33 817.645 1111.23 817.645 1087.33 823.468 1087.33 829.57 1100.36 830.889 1100.36 884.379 1117.21 884.379 1142.46 842.913 1142.46 884.379 1160.91 884.379 1186.58 851.561 1186.58 851.561ZM1037.03 831.244C1040.9 830.773 1042.82 830.552 1044.65 830.552 1055.63 830.552 1061.59 837.851 1061.59 851.573 1061.59 867.781 1054.31 876.237 1040.74 876.237 1039.61 876.237 1038.82 876.237 1037.03 876.15L1037.03 831.244 1037.03 831.244ZM1037.03 883.728C1041.4 884.228 1045.65 884.384 1048.21 884.384 1070.78 884.384 1085.11 869.948 1085.11 848.487 1085.11 829.924 1074.37 816.517 1059.82 816.517 1053.52 816.517 1049.3 817.807 1037.03 825.113L1037.03 816.174 1030.22 816.174 1004 824.13 1004 830.546 1014.86 830.546 1014.86 905.376 1005.09 907.805 1005.09 914 1047.95 914 1047.95 907.805C1047.95 907.805 1037.02 905.376 1037.02 905.376L1037.02 883.728 1037.02 883.728Z" fill-rule="evenodd"/><path d="M1230.34 798 1159 798 1171.15 777.503 1242.5 777.503 1230.34 798ZM1326 757 1254.66 757 1242.5 777.497 1313.85 777.497 1326 757Z" fill="#FD5108" fill-rule="evenodd"/><rect x="1432" y="736" width="16.9999" height="152" fill="#454546"/><path d="M1930.33 790.32C1925.05 790.32 1920.94 792.199 1918.01 795.957 1915.08 799.715 1913.61 804.695 1913.61 810.898 1913.61 817.538 1915 822.793 1917.79 826.66 1920.58 830.528 1924.54 832.461 1929.67 832.461 1934.8 832.461 1938.91 830.455 1941.99 826.441 1945.07 822.428 1946.61 817.137 1946.61 810.57 1946.61 804.513 1945.18 799.624 1942.32 795.903 1939.46 792.181 1935.46 790.32 1930.33 790.32ZM1871.34 790.32C1867.01 790.32 1863.35 791.761 1860.34 794.643 1857.33 797.526 1855.61 801.412 1855.17 806.301L1887.84 806.301C1887.55 801.704 1885.88 797.891 1882.84 794.863 1879.79 791.834 1875.96 790.32 1871.34 790.32ZM2113.76 783.424 2124.32 783.424 2140.93 829.725 2141.15 829.725 2157.1 783.424 2167 783.424 2142.8 846.034C2140.23 852.821 2137.76 857.29 2135.37 859.443 2132.99 861.595 2129.78 862.672 2125.75 862.672 2123.26 862.672 2121.09 862.343 2119.26 861.687L2119.26 853.149C2121.9 854.024 2123.73 854.463 2124.76 854.463 2128.65 854.463 2131.29 852.565 2132.68 848.771L2136.31 839.686ZM1969.22 783.424 1978.57 783.424 1978.57 840.014 1969.22 840.014ZM1670.15 783.424 1679.5 783.424 1679.5 840.014 1670.15 840.014ZM2110.38 782.111 2111.7 782.111 2111.7 791.962C2104.66 791.962 2099.47 793.805 2096.13 797.489 2092.79 801.175 2091.13 806.921 2091.13 814.729L2091.13 840.014 2081.78 840.014 2081.78 783.424 2090.58 783.424 2090.58 795.355 2090.8 795.355C2095.12 786.525 2101.65 782.111 2110.38 782.111ZM2011.65 782.111C2019.35 782.111 2025.05 783.589 2028.75 786.544 2032.46 789.499 2034.49 793.932 2034.86 799.843L2025.51 799.843 2025.51 799.734C2025.22 796.669 2023.88 794.334 2021.49 792.728 2019.11 791.123 2016.05 790.32 2012.31 790.32 2008.57 790.32 2005.62 790.94 2003.45 792.181 2001.29 793.421 2000.21 795.209 2000.21 797.544 2000.21 799.66 2001.16 801.357 2003.07 802.634 2004.98 803.911 2007.87 804.987 2011.76 805.863L2020.56 807.833C2026.06 809.074 2030.24 810.916 2033.1 813.361 2035.96 815.805 2037.39 819.18 2037.39 823.486 2037.39 829.105 2035.23 833.483 2030.9 836.621 2026.57 839.759 2020.67 841.328 2013.19 841.328 2005.93 841.328 2000.17 839.74 1995.92 836.566 1991.67 833.392 1989.39 828.594 1989.1 822.172L1998.45 822.172C1998.6 825.675 1999.99 828.375 2002.63 830.272 2005.27 832.169 2008.97 833.118 2013.74 833.118 2022.91 833.118 2027.49 830.309 2027.49 824.69 2027.49 822.209 2026.37 820.239 2024.13 818.779 2021.9 817.32 2017.11 815.824 2009.78 814.291 2002.81 812.905 1997.83 810.971 1994.82 808.49 1991.81 806.009 1990.31 802.579 1990.31 798.201 1990.31 793.385 1992.23 789.499 1996.08 786.544 1999.93 783.589 2005.12 782.111 2011.65 782.111ZM1929.89 782.111C1937.66 782.111 1943.35 785.248 1946.94 791.524L1947.05 791.524 1947.05 783.424 1955.85 783.424 1955.85 835.745C1955.85 853.915 1947.09 863 1929.56 863 1922.45 863 1916.8 861.486 1912.62 858.458 1908.44 855.429 1906.2 851.398 1905.91 846.362L1915.26 846.362C1915.41 849.063 1916.87 851.27 1919.66 852.985 1922.45 854.7 1925.89 855.557 1930 855.557 1941.37 855.557 1947.05 848.333 1947.05 833.884L1947.05 830.382 1946.83 830.382C1945.36 833.519 1943.04 836.019 1939.85 837.879 1936.66 839.74 1933.08 840.671 1929.12 840.671 1921.42 840.671 1915.26 838.044 1910.64 832.79 1906.02 827.536 1903.71 820.604 1903.71 811.993 1903.71 803.09 1906.04 795.884 1910.69 790.375 1915.35 784.865 1921.75 782.111 1929.89 782.111ZM1872 782.111C1880.07 782.111 1886.38 784.993 1890.92 790.758 1895.47 796.523 1897.74 804.075 1897.74 813.416L1897.74 814.51 1855.17 814.51 1855.17 815.167C1855.17 820.64 1856.75 825 1859.9 828.247 1863.05 831.494 1867.38 833.118 1872.88 833.118 1881.02 833.118 1885.94 829.433 1887.62 822.063L1896.86 822.063C1895.62 828.411 1892.87 833.209 1888.61 836.457 1884.36 839.704 1879.01 841.328 1872.55 841.328 1863.6 841.328 1856.82 838.409 1852.2 832.571 1847.58 826.733 1845.27 819.655 1845.27 811.336 1845.27 802.944 1847.8 795.975 1852.86 790.43 1857.92 784.883 1864.3 782.111 1872 782.111ZM1784.71 770.618 1784.71 797.873 1807.05 797.873C1818.78 797.873 1824.65 793.239 1824.65 783.971 1824.65 779.739 1823.47 776.455 1821.13 774.12 1818.78 771.785 1815.44 770.618 1811.12 770.618ZM2051.36 766.458 2060.71 766.458 2060.71 783.424 2072.04 783.424 2072.04 791.633 2060.71 791.633 2060.71 827.098C2060.71 828.776 2061.04 829.98 2061.7 830.71 2062.36 831.44 2064.01 831.805 2066.65 831.805L2072.04 831.805 2072.04 840.014 2064.34 840.014C2059.5 840.014 2056.13 839.211 2054.22 837.606 2052.31 836.001 2051.36 832.863 2051.36 828.193L2051.36 791.633 2041.68 791.633 2041.68 783.424 2051.36 783.424ZM1969.22 761.861 1978.57 761.861 1978.57 773.245 1969.22 773.245ZM1774.26 761.861 1811.67 761.861C1818.78 761.861 1824.46 763.722 1828.72 767.443 1832.97 771.165 1835.1 776.127 1835.1 782.329 1835.1 792.984 1830.55 799.587 1821.46 802.141L1821.46 802.36C1825.56 803.09 1828.51 804.951 1830.31 807.943 1832.11 810.935 1833.15 815.897 1833.45 822.829 1833.59 827.426 1834.01 831.002 1834.71 833.556 1835.41 836.11 1836.45 838.263 1837.85 840.014L1826.19 840.014C1825.53 839.138 1825.1 838.281 1824.92 837.442 1824.74 836.602 1824.54 835.453 1824.32 833.994L1823.88 825.456C1823.73 820.421 1822.74 816.043 1820.91 812.321 1819.07 808.599 1815.63 806.702 1810.57 806.629L1784.71 806.629 1784.71 840.014 1774.26 840.014ZM1718.27 761.861 1727.62 761.861 1727.62 840.014 1718.27 840.014ZM1694.21 761.861 1703.56 761.861 1703.56 840.014 1694.21 840.014ZM1670.15 761.861 1679.5 761.861 1679.5 773.245 1670.15 773.245ZM1611.71 761.861 1621.06 761.861 1621.06 808.162 1647.02 783.424 1659.56 783.424 1637.01 804.002 1661.21 840.014 1649.33 840.014 1629.86 810.46 1621.06 818.56 1621.06 840.014 1611.71 840.014ZM1566.91 760C1575.78 760 1582.82 762.189 1588.03 766.568 1593.24 770.946 1595.84 777.003 1595.84 784.738L1585.94 784.738C1584.77 774.084 1578.28 768.757 1566.47 768.757 1560.82 768.757 1556.48 769.906 1553.44 772.205 1550.39 774.503 1548.87 777.805 1548.87 782.111 1548.87 784.811 1550.01 787.182 1552.28 789.226 1554.55 791.268 1561.81 793.531 1574.06 796.012 1582.49 797.69 1588.78 800.299 1592.93 803.838 1597.07 807.377 1599.14 812.285 1599.14 818.56 1599.14 825.857 1596.13 831.549 1590.12 835.636 1584.11 839.722 1576.88 841.802 1568.45 841.875 1558.55 841.875 1550.67 839.412 1544.8 834.487 1538.93 829.561 1536 822.829 1536 814.291L1545.9 814.291C1545.97 820.348 1548.12 825 1552.34 828.247 1556.55 831.494 1562.03 833.118 1568.78 833.118 1575.16 833.118 1580.07 831.896 1583.52 829.451 1586.97 827.007 1588.69 823.486 1588.69 818.889 1588.69 815.094 1587.02 812.084 1583.69 809.858 1580.35 807.633 1574.65 805.754 1566.58 804.221 1555.07 801.959 1547.49 799.186 1543.86 795.903 1540.23 792.619 1538.42 788.277 1538.42 782.877 1538.42 775.944 1541.02 770.399 1546.23 766.239 1551.44 762.08 1558.33 760 1566.91 760Z" fill="#454546" fill-rule="evenodd"/></g></svg>