<svg width="340" height="178" viewBox="0 0 340 178" xmlns="http://www.w3.org/2000/svg" xmlns:xlink="http://www.w3.org/1999/xlink" overflow="hidden" aria-label="PwC"><g transform="translate(-1004 -736)"><path d="M1242.54 823.276C1231.2 825.107 1225.41 833.475 1225.41 848.202 1225.41 862.928 1233.13 872.93 1244.97 872.93 1250.47 872.93 1255.48 871.099 1266 865.944L1266 877.934C1253.38 883.722 1245.94 885.512 1235.77 885.512 1224.75 885.512 1217 882.589 1210.67 876.144 1204.19 869.658 1200.94 861.098 1200.94 851.561 1200.94 830.349 1216.66 816 1239.6 816 1254.85 816 1265.33 822.962 1265.33 833.179 1265.33 839.758 1260.45 844.291 1253.21 844.291 1249.5 844.291 1246.44 843.32 1242.54 841.054L1242.54 823.27 1242.54 823.27ZM1186.59 851.567C1196.75 838.758 1200.34 833.597 1200.34 827.309 1200.34 821.021 1195.37 816.006 1188.72 816.006 1184.63 816.006 1180.95 817.935 1179.14 819.946L1179.14 846.034 1162.49 868.211 1162.49 817.645 1146.65 817.645 1120.33 861.26 1120.33 817.645 1111.23 817.645 1087.33 823.468 1087.33 829.57 1100.36 830.889 1100.36 884.379 1117.21 884.379 1142.46 842.913 1142.46 884.379 1160.91 884.379 1186.58 851.561 1186.58 851.561ZM1037.03 831.244C1040.9 830.773 1042.82 830.552 1044.65 830.552 1055.63 830.552 1061.59 837.851 1061.59 851.573 1061.59 867.781 1054.31 876.237 1040.74 876.237 1039.61 876.237 1038.82 876.237 1037.03 876.15L1037.03 831.244 1037.03 831.244ZM1037.03 883.728C1041.4 884.228 1045.65 884.384 1048.21 884.384 1070.78 884.384 1085.11 869.948 1085.11 848.487 1085.11 829.924 1074.37 816.517 1059.82 816.517 1053.52 816.517 1049.3 817.807 1037.03 825.113L1037.03 816.174 1030.22 816.174 1004 824.13 1004 830.546 1014.86 830.546 1014.86 905.376 1005.09 907.805 1005.09 914 1047.95 914 1047.95 907.805C1047.95 907.805 1037.02 905.376 1037.02 905.376L1037.02 883.728 1037.02 883.728Z" fill-rule="evenodd"/><path d="M1230.34 798 1159 798 1171.15 777.503 1242.5 777.503 1230.34 798ZM1326 757 1254.66 757 1242.5 777.497 1313.85 777.497 1326 757Z" fill="#FD5108" fill-rule="evenodd"/></g></svg>
